# xmcd
#
# Track frame offsets: 
#        150
#        14000
#        26825
#        39615
#        53495
#        66930
#        79135
#        90632
#        106727
#        128495
#        139735
#
# Disc length: 2034 seconds
#
# Revision: 1
# Processed by: cddbd v1.5.2PL0 Copyright (c) Steve Scherf et al.
# Submitted via: ExactAudioCopy v0.99pb5
#
DISCID=8b07f00b
DTITLE=Tanya Tucker - The Best Of - The Millennium Collection
DYEAR=2000
DGENRE=Country
TTITLE0=Lizzie and the rainman
TTITLE1=San Antonio stroll
TTITLE2=Don't believe my heart can stand another you
TTITLE3=You've got me to hold on to
TTITLE4=Here's some love
TTITLE5=Ridin' rainbows
TTITLE6=It's a cowboy lovin' night
TTITLE7=Dancing the night away
TTITLE8=Texas (when I die)
TTITLE9=Pecos promenade
TTITLE10=Can I see you tonight
EXTD=
EXTT0=
EXTT1=
EXTT2=
EXTT3=
EXTT4=
EXTT5=
EXTT6=
EXTT7=
EXTT8=
EXTT9=
EXTT10=
PLAYORDER=
